<svg xmlns="http://www.w3.org/2000/svg" viewBox="0 0 21.38 90"><defs><style>.cls-1{fill:#fff;}</style></defs><title>Asset 1</title><g id="Layer_2" data-name="Layer 2"><g id="Layer_1-2" data-name="Layer 1"><path class="cls-1" d="M21.38,90H0V0H21.38ZM1.84,88.16H19.55V1.84H1.84Z"/><path class="cls-1" d="M17.93,43.66H3.45V25.19H17.93ZM4.37,42.74H17V26.11H4.37Z"/><path class="cls-1" d="M17.93,65.21H3.45V46.73H17.93ZM4.37,64.29H17V47.65H4.37Z"/><path class="cls-1" d="M17.93,86H3.45V67.48H17.93ZM4.37,85H17V68.4H4.37Z"/><path class="cls-1" d="M14.37,16.3a2.92,2.92,0,0,0,1.73-.57V10.9a2.92,2.92,0,0,0-1.73-.57,3,3,0,1,0,0,6Z"/><path class="cls-1" d="M17.93,3.65H3.45V22.12H17.93ZM17,21.2H4.37V4.57H17V21.2Z"/><path class="cls-1" d="M7.94,35.13a3,3,0,1,0-2.65-4.33v2.69A3,3,0,0,0,7.94,35.13Z"/><path class="cls-1" d="M13.45,53.49a3,3,0,0,0-1.63.49,3,3,0,1,0-1.34,2.7,3,3,0,0,0,5.61,1.15V55.13A3,3,0,0,0,13.45,53.49Z"/><path class="cls-1" d="M16.1,81.7a3.81,3.81,0,0,0-4.32.58A3.9,3.9,0,0,0,11.36,81a3,3,0,1,0-.55-5.17,3,3,0,0,0-5.52-2.13v2.69A3,3,0,0,0,9.66,77.5a2.86,2.86,0,0,0,.12,2A3.84,3.84,0,0,0,5.29,80v4.08H16.1V81.7Z"/><path class="cls-1" d="M16.1,17.64a3.81,3.81,0,0,0-4.32.58A3.88,3.88,0,0,0,5.29,16v4.31H16.1Z"/><path class="cls-1" d="M7.94,14A3,3,0,1,0,5.29,9.67v2.69A3,3,0,0,0,7.94,14Z"/><path class="cls-1" d="M13.45,31.45a3,3,0,1,0,2.65,4.33V33.09A3,3,0,0,0,13.45,31.45Z"/><path class="cls-1" d="M16.1,38.76a3.81,3.81,0,0,0-4.32.58A3.88,3.88,0,0,0,5.29,37.1v4.73H16.1Z"/><path class="cls-1" d="M16.1,60.8a3.81,3.81,0,0,0-4.32.58,3.88,3.88,0,0,0-6.49-2.24v4.23H16.1Z"/></g></g></svg>