<svg id="Layer_1" data-name="Layer 1" xmlns="http://www.w3.org/2000/svg" viewBox="0 0 90 72"><defs><style>.cls-1{fill:none;}.cls-2{fill:#fff;}</style></defs><title>Artboard 1</title><path class="cls-1" d="M45,18A22.5,22.5,0,1,0,67.5,40.5,22.5,22.5,0,0,0,45,18Zm0,37.35A14.85,14.85,0,1,1,59.85,40.5,14.85,14.85,0,0,1,45,55.35Z"/><path class="cls-1" d="M77.85,22.18a3.46,3.46,0,1,0,3.47,3.46A3.47,3.47,0,0,0,77.85,22.18Z"/><path class="cls-2" d="M45,25.65A14.85,14.85,0,1,0,59.85,40.5,14.85,14.85,0,0,0,45,25.65Z"/><path class="cls-2" d="M81,13.5H70.2a4,4,0,0,1-3.55-2.56L63.85,2.56A4,4,0,0,0,60.3,0H29.7a4,4,0,0,0-3.55,2.56l-2.79,8.38A4,4,0,0,1,19.8,13.5H9a9,9,0,0,0-9,9V63a9,9,0,0,0,9,9H81a9,9,0,0,0,9-9V22.5A9,9,0,0,0,81,13.5ZM45,63A22.5,22.5,0,1,1,67.5,40.5,22.5,22.5,0,0,1,45,63ZM77.85,29.11a3.46,3.46,0,1,1,3.47-3.47A3.47,3.47,0,0,1,77.85,29.11Z"/></svg>