<svg xmlns="http://www.w3.org/2000/svg" viewBox="0 0 232.5 232.5"><defs><style>.cls-1{fill:#fff;}</style></defs><title>Asset 1</title><g id="Layer_2" data-name="Layer 2"><g id="Layer_1-2" data-name="Layer 1"><path class="cls-1" d="M5,10H28.5c6.43,0,6.45-10,0-10H5C-1.43,0-1.45,10,5,10Z"/><path class="cls-1" d="M10,30.5V5C10-1.43,0-1.45,0,5V30.5c0,6.43,10,6.45,10,0Z"/><path class="cls-1" d="M227.5,222.5H204c-6.43,0-6.45,10,0,10h23.5c6.43,0,6.45-10,0-10Z"/><path class="cls-1" d="M222.5,202v25.5c0,6.43,10,6.45,10,0V202c0-6.43-10-6.45-10,0Z"/><path class="cls-1" d="M222.5,5V28.5c0,6.43,10,6.45,10,0V5c0-6.43-10-6.45-10,0Z"/><path class="cls-1" d="M202,10h25.5c6.43,0,6.45-10,0-10H202c-6.43,0-6.45,10,0,10Z"/><path class="cls-1" d="M10,226.5V203c0-6.43-10-6.45-10,0v23.5c0,6.43,10,6.45,10,0Z"/><path class="cls-1" d="M30.5,221.5H5c-6.43,0-6.45,10,0,10H30.5c6.43,0,6.45-10,0-10Z"/><path class="cls-1" d="M116,10.5h0a4.64,4.64,0,0,0,3.18-1.32,4.5,4.5,0,0,0,0-6.36A4.68,4.68,0,0,0,116,1.5h0a4.64,4.64,0,0,0-3.18,1.32,4.5,4.5,0,0,0,0,6.36A4.68,4.68,0,0,0,116,10.5Z"/><path class="cls-1" d="M6,111.75H6a4.64,4.64,0,0,0-3.18,1.32,4.5,4.5,0,0,0,0,6.36A4.68,4.68,0,0,0,6,120.75H6a4.64,4.64,0,0,0,3.18-1.32,4.5,4.5,0,0,0,0-6.36A4.68,4.68,0,0,0,6,111.75Z"/><path class="cls-1" d="M227.5,120.75h0a4.64,4.64,0,0,0,3.18-1.32,4.5,4.5,0,0,0,0-6.36,4.68,4.68,0,0,0-3.18-1.32h0a4.64,4.64,0,0,0-3.18,1.32,4.5,4.5,0,0,0,0,6.36,4.68,4.68,0,0,0,3.18,1.32Z"/><path class="cls-1" d="M116,232h0a4.64,4.64,0,0,0,3.18-1.32,4.5,4.5,0,0,0,0-6.36A4.68,4.68,0,0,0,116,223h0a4.64,4.64,0,0,0-3.18,1.32,4.5,4.5,0,0,0,0,6.36A4.68,4.68,0,0,0,116,232Z"/><path class="cls-1" d="M88.5,120.75h56c5.79,0,5.8-9,0-9h-56c-5.79,0-5.8,9,0,9Z"/><path class="cls-1" d="M112,89.75V143.5c0,5.79,9,5.8,9,0V89.75c0-5.79-9-5.8-9,0Z"/></g></g></svg>