<svg xmlns="http://www.w3.org/2000/svg" xmlns:xlink="http://www.w3.org/1999/xlink" version="1.1" x="0px" y="0px" viewBox="38.12 0 23.76 100" enable-background="new 38.12 0 23.76 100" xml:space="preserve"><path d="M60.692,95H39.308V5h21.384V95z M41.145,93.163h17.711V6.837H41.145V93.163z"></path><path d="M57.241,48.664H42.759V30.192h14.482V48.664z M43.677,47.745h12.645V31.111H43.677V47.745z"></path><path d="M57.241,70.206H42.759V51.734h14.482V70.206z M43.677,69.288h12.645V52.653H43.677V69.288z"></path><path d="M57.241,90.951H42.759V72.479h14.482V90.951z M43.677,90.032h12.645V73.398H43.677V90.032z"></path><path d="M53.674,21.301c0.65,0,1.244-0.215,1.731-0.57v-4.83c-0.487-0.355-1.081-0.57-1.731-0.57c-1.648,0-2.985,1.336-2.985,2.985  S52.025,21.301,53.674,21.301z"></path><path d="M57.241,8.651H42.759v18.47h14.482V8.651z M56.323,26.203H43.677V9.569h12.645L56.323,26.203L56.323,26.203z"></path><path d="M47.245,40.128c1.648,0,2.985-1.336,2.985-2.985c0-1.648-1.336-2.985-2.985-2.985c-1.161,0-2.156,0.669-2.649,1.637v2.695  C45.089,39.458,46.084,40.128,47.245,40.128z"></path><path d="M52.755,58.495c-0.601,0-1.159,0.181-1.627,0.487c-0.105-1.553-1.385-2.783-2.964-2.783c-1.648,0-2.985,1.336-2.985,2.985  c0,1.648,1.336,2.985,2.985,2.985c0.601,0,1.159-0.181,1.627-0.487c0.105,1.553,1.385,2.783,2.964,2.783  c1.161,0,2.156-0.669,2.649-1.637v-2.695C54.911,59.164,53.916,58.495,52.755,58.495z"></path><path d="M55.405,86.697c-0.524-0.261-1.106-0.422-1.731-0.422c-0.997,0-1.897,0.385-2.587,1c-0.07-0.443-0.218-0.86-0.423-1.241  c0.36,0.154,0.756,0.24,1.173,0.24c1.648,0,2.985-1.336,2.985-2.985s-1.336-2.985-2.985-2.985c-0.644,0-1.237,0.209-1.725,0.556  c0.069-0.252,0.118-0.512,0.118-0.786c0-1.648-1.336-2.985-2.985-2.985c-1.161,0-2.156,0.669-2.649,1.637v2.695  c0.494,0.968,1.488,1.637,2.649,1.637c0.644,0,1.237-0.209,1.725-0.556c-0.069,0.252-0.118,0.512-0.118,0.786  c0,0.414,0.085,0.809,0.237,1.167c-0.549-0.299-1.174-0.478-1.845-0.478c-1.026,0-1.953,0.404-2.649,1.052v4.082h10.809  L55.405,86.697L55.405,86.697z"></path><path d="M55.405,22.641c-0.524-0.261-1.106-0.422-1.731-0.422c-0.997,0-1.897,0.385-2.587,1c-0.293-1.865-1.894-3.296-3.842-3.296  c-1.026,0-1.953,0.404-2.649,1.052v4.309h10.809V22.641z"></path><path d="M47.245,19.005c1.648,0,2.985-1.336,2.985-2.985s-1.336-2.985-2.985-2.985c-1.161,0-2.156,0.669-2.649,1.637v2.695  C45.089,18.336,46.084,19.005,47.245,19.005z"></path><path d="M52.755,36.454c-1.648,0-2.985,1.336-2.985,2.985c0,1.648,1.336,2.985,2.985,2.985c1.161,0,2.156-0.669,2.649-1.637v-2.695  C54.911,37.124,53.916,36.454,52.755,36.454z"></path><path d="M55.405,43.763c-0.524-0.261-1.106-0.422-1.731-0.422c-0.997,0-1.897,0.385-2.587,1c-0.293-1.865-1.894-3.296-3.842-3.296  c-1.026,0-1.953,0.404-2.649,1.052v4.729h10.809V43.763z"></path><path d="M55.405,65.804c-0.524-0.261-1.106-0.422-1.731-0.422c-0.997,0-1.897,0.385-2.587,1c-0.293-1.865-1.894-3.296-3.842-3.296  c-1.026,0-1.953,0.404-2.649,1.052v4.23h10.809V65.804z"></path></svg>