<svg xmlns="http://www.w3.org/2000/svg" xmlns:xlink="http://www.w3.org/1999/xlink" version="1.1" x="0px" y="0px" viewBox="0 0 100 100" enable-background="new 0 0 100 100" xml:space="preserve"><g display="none"><rect x="-541.258" y="-253.241" display="inline" fill="#000000" width="1566.157" height="1272.127"></rect></g><g><g><path fill="none" d="M50,32c-12.428,0-22.5,10.077-22.5,22.5C27.5,66.928,37.572,77,50,77c12.423,0,22.5-10.072,22.5-22.5    C72.5,42.077,62.423,32,50,32z M50,69.35c-8.203,0-14.85-6.647-14.85-14.85c0-8.198,6.647-14.85,14.85-14.85    c8.198,0,14.85,6.652,14.85,14.85C64.85,62.703,58.198,69.35,50,69.35z"></path><path fill="none" d="M82.849,36.181c-1.909,0-3.466,1.552-3.466,3.461c0,1.914,1.557,3.466,3.466,3.466    c1.914,0,3.466-1.552,3.466-3.466C86.315,37.732,84.763,36.181,82.849,36.181z"></path><path d="M50,39.65c-8.203,0-14.85,6.652-14.85,14.85c0,8.203,6.647,14.85,14.85,14.85c8.198,0,14.85-6.647,14.85-14.85    C64.85,46.302,58.198,39.65,50,39.65z"></path><path d="M86,27.5H75.198c-1.485,0-3.085-1.151-3.55-2.562l-2.794-8.377C68.383,15.151,66.787,14,65.302,14H34.698    c-1.485,0-3.085,1.151-3.551,2.562l-2.794,8.377c-0.47,1.411-2.065,2.562-3.551,2.562H14c-4.948,0-9,4.052-9,9V77    c0,4.948,4.052,9,9,9h72c4.948,0,9-4.052,9-9V36.5C95,31.552,90.948,27.5,86,27.5z M50,77c-12.428,0-22.5-10.072-22.5-22.5    C27.5,42.077,37.572,32,50,32c12.423,0,22.5,10.077,22.5,22.5C72.5,66.928,62.423,77,50,77z M82.849,43.108    c-1.909,0-3.466-1.552-3.466-3.466c0-1.91,1.557-3.461,3.466-3.461c1.914,0,3.466,1.552,3.466,3.461    C86.315,41.556,84.763,43.108,82.849,43.108z"></path></g></g></svg>